<?xml version="1.0" encoding="UTF-8"?>
<svg version="1.1" xmlns="http://www.w3.org/2000/svg" width="256" height="256">
<path d="M0 0 C4.92642191 4.87893833 7.72522823 9.12059517 8.23046875 16.25390625 C8.21628906 17.34574219 8.20210937 18.43757813 8.1875 19.5625 C8.17783203 21.20412109 8.17783203 21.20412109 8.16796875 22.87890625 C8.01649324 25.69353265 7.63784164 28.2598323 7 31 C14.52811564 37.58459181 22.0445398 44.1519579 29.90234375 50.34375 C32.64671714 52.51062954 35.32548275 54.74777495 38 57 C38.515625 56.731875 39.03125 56.46375 39.5625 56.1875 C40.366875 55.795625 41.17125 55.40375 42 55 C43.051875 54.46375 44.10375 53.9275 45.1875 53.375 C50.15294801 51.30606333 55.03376914 51.05740958 60.17578125 52.69140625 C65.06091897 54.89017822 67.93646465 57.63678298 71 62 C72.94926781 67.84780342 72.78007493 74.52211492 70.9375 80.375 C67.75163605 84.69133181 64.14137782 88.28620739 59 90 C52.69489783 90.51470222 47.40053614 90.64222205 42 87 C41.14494873 86.09805908 40.28989746 85.19611816 39.40893555 84.2668457 C37.45325059 82.63615545 36.51264561 82.00320047 33.94204712 81.9871521 C31.48650562 82.48426213 29.15630218 83.15604706 26.76953125 83.91796875 C25.89729416 84.16919998 25.02505707 84.42043121 24.12638855 84.67927551 C21.34566587 85.48659114 18.57984769 86.33558299 15.8125 87.1875 C13.03231599 88.01206775 10.24974216 88.82806875 7.46647644 89.64216614 C5.73678025 90.15153442 4.00938032 90.66877954 2.28462219 91.19462585 C1.50338486 91.43099258 0.72214752 91.66735931 -0.08276367 91.91088867 C-0.76860031 92.12138351 -1.45443695 92.33187836 -2.16105652 92.54875183 C-4 93 -4 93 -7 93 C-7 97.95 -7 102.9 -7 108 C-5.39125 107.896875 -3.7825 107.79375 -2.125 107.6875 C5.05479198 107.7059808 10.35068843 109.96660599 15.8515625 114.5390625 C20.75701561 119.63783396 22.85930037 125.79073597 23.09375 132.8046875 C22.65459051 140.73151633 20.60761121 146.88462275 14.6875 152.3125 C7.19744666 158.09955174 0.38170442 159.16992751 -9 158 C-16.79961672 155.59600855 -22.1457506 151.00457918 -26.15625 143.97265625 C-27 142 -27 142 -27 139 C-27.99 139.33 -28.98 139.66 -30 140 C-32.15253133 140.20247751 -34.30989864 140.35478796 -36.46826172 140.48071289 C-37.12081436 140.5198732 -37.773367 140.55903351 -38.44569397 140.59938049 C-40.60680473 140.72793182 -42.76820863 140.85046244 -44.9296875 140.97265625 C-46.4412683 141.0606569 -47.95283427 141.14891262 -49.46438599 141.2374115 C-52.64017301 141.42240694 -55.81611169 141.60445636 -58.9921875 141.78442383 C-63.02787699 142.01330826 -67.06312366 142.24912774 -71.09827995 142.48720646 C-74.22631176 142.67100801 -77.35454738 142.85113406 -80.48285294 143.03021049 C-81.96819409 143.11563998 -83.45347454 143.20213251 -84.93868637 143.28978157 C-93.96621831 143.82002581 -102.95491296 144.11753572 -112 144 C-112.30252686 144.9477832 -112.60505371 145.89556641 -112.91674805 146.87207031 C-113.92646561 149.78766676 -114.81819934 151.45576495 -116.8125 153.75 C-117.29332031 154.32234375 -117.77414063 154.8946875 -118.26953125 155.484375 C-122.90520424 159.54451297 -128.18230704 159.42461965 -134.0546875 159.31640625 C-139.48745589 158.73277994 -142.54555998 156.5330584 -146.3125 152.5625 C-149.86713021 147.16472819 -150.89527425 142.40547408 -150 136 C-148.52087412 131.97426589 -146.37109491 128.55664237 -144 125 C-144.56079658 122.75344831 -144.56079658 122.75344831 -145.7734375 120.40234375 C-146.1859375 119.51869141 -146.5984375 118.63503906 -147.0234375 117.72460938 C-147.46945313 116.80486328 -147.91546875 115.88511719 -148.375 114.9375 C-149.23997211 113.11469848 -150.10209867 111.29054307 -150.9609375 109.46484375 C-151.35071777 108.656521 -151.74049805 107.84819824 -152.14208984 107.01538086 C-153 105 -153 105 -153 103 C-153.82242188 103.05800781 -154.64484375 103.11601562 -155.4921875 103.17578125 C-163.46690648 103.49808513 -169.50142119 102.88862348 -176 98 C-181.6165889 92.2082576 -184.28325699 86.41479463 -184.4375 78.3125 C-184.29968039 70.57028084 -182.70585815 64.6525912 -177.09765625 59.125 C-170.53844526 53.88770293 -164.43203528 52.47871087 -156.109375 52.61328125 C-150.04936814 53.36697557 -144.93163005 56.01616373 -140.6875 60.375 C-140.130625 60.91125 -139.57375 61.4475 -139 62 C-135.62518433 61.57701873 -132.6543886 60.57828336 -129.52148438 59.28857422 C-128.65899078 58.93613647 -127.79649719 58.58369873 -126.90786743 58.22058105 C-125.97920868 57.83583618 -125.05054993 57.45109131 -124.09375 57.0546875 C-123.11248138 56.65237915 -122.13121277 56.2500708 -121.12020874 55.83557129 C-119.00932852 54.96954577 -116.89927848 54.10149454 -114.78997803 53.23162842 C-111.48424373 51.86850287 -108.17631312 50.51084773 -104.86767578 49.15478516 C-100.39446382 47.3210803 -95.92198064 45.48561868 -91.45019531 43.6484375 C-83.05278597 40.19937321 -74.65128138 36.76049863 -66.24243164 33.3394165 C-63.92276226 32.39445683 -61.60491898 31.44511568 -59.28710938 30.49560547 C-57.8764059 29.92129441 -56.46560454 29.34722369 -55.0546875 28.7734375 C-53.85312012 28.28278809 -52.65155273 27.79213867 -51.41357422 27.28662109 C-47.96406362 25.9864551 -44.55576442 24.96087936 -41 24 C-41.08701172 22.98292969 -41.08701172 22.98292969 -41.17578125 21.9453125 C-41.53782569 14.47685291 -40.30963669 9.16742494 -36 3 C-26.70715071 -7.22425105 -10.83862169 -9.32625587 0 0 Z M-39.84555054 33.33206177 C-42.26124071 34.18118368 -44.59804776 35.1455992 -46.94921875 36.16015625 C-47.85492615 36.53230255 -48.76063354 36.90444885 -49.69378662 37.28787231 C-52.69961179 38.52785381 -55.69312704 39.79514173 -58.6875 41.0625 C-60.77075152 41.9275007 -62.85483063 42.79051073 -64.93969727 43.65161133 C-69.34059093 45.4718815 -73.7370685 47.30230271 -78.13085938 49.13964844 C-88.44186688 53.44382517 -98.79727126 57.63931255 -109.14736938 61.84835815 C-114.41170301 63.99103584 -119.67273323 66.14178073 -124.93359375 68.29296875 C-125.85630066 68.67019073 -126.77900757 69.04741272 -127.72967529 69.43606567 C-129.81982753 70.29060291 -131.90993861 71.1452406 -134 72 C-134.05188477 72.80896729 -134.10376953 73.61793457 -134.15722656 74.45141602 C-134.23424805 75.52061279 -134.31126953 76.58980957 -134.390625 77.69140625 C-134.46313477 78.74787354 -134.53564453 79.80434082 -134.61035156 80.89282227 C-135.51168694 88.08035064 -138.57548394 93.32888895 -144 98 C-143.10164629 101.0649715 -142.11179693 104.00854639 -141 107 C-140.55914062 108.19109375 -140.11828125 109.3821875 -139.6640625 110.609375 C-136.83832895 117.77006739 -136.83832895 117.77006739 -131.015625 122.45703125 C-127.85853281 123.23749731 -127.85853281 123.23749731 -124.76953125 123.54296875 C-122 124 -122 124 -119.94921875 125.67578125 C-119.30597656 126.11277344 -118.66273437 126.54976563 -118 127 C-111.79784236 124.96780653 -106.01134916 121.58575015 -100.25 118.5625 C-98.50783203 117.71268555 -98.50783203 117.71268555 -96.73046875 116.84570312 C-90.54339078 113.78160314 -90.54339078 113.78160314 -87.05541992 108.19238281 C-86.82338561 105.41531541 -86.89201867 102.77976376 -87 100 C-85.29407371 95.1515779 -82.59455926 91.44451793 -78 89 C-76.40435361 88.76430655 -74.80122579 88.57638439 -73.1953125 88.42578125 C-68.94708004 87.62708726 -67.10493828 86.59150704 -64.55859375 83.08984375 C-63.48796099 81.39109971 -62.44922402 79.67197407 -61.4375 77.9375 C-60.25502082 76.03885735 -59.07000625 74.14179202 -57.8828125 72.24609375 C-57.2630957 71.23788574 -56.64337891 70.22967773 -56.00488281 69.19091797 C-52.79522588 64.08251368 -49.37059041 59.12472037 -45.95120239 54.15530396 C-44.13429349 51.5141077 -42.32584353 48.86720153 -40.51953125 46.21875 C-39.91214111 45.33123047 -39.30475098 44.44371094 -38.67895508 43.52929688 C-37.04053003 41.06105731 -35.50301482 38.55251649 -34 36 C-35.78634251 33.89519751 -37.02108988 32.82386902 -39.84555054 33.33206177 Z M-6.125 41 C-6.84945312 41.37125 -7.57390625 41.7425 -8.3203125 42.125 C-9.15175781 42.558125 -9.15175781 42.558125 -10 43 C-9.88008171 46.92877004 -9.75576335 50.85737598 -9.62768555 54.78588867 C-9.56401523 56.76539182 -9.50364702 58.74500031 -9.44335938 60.72460938 C-9.19792682 68.18198313 -8.78859059 75.57950764 -8 83 C0.90292372 81.48980233 9.48207193 78.93175043 18.125 76.375 C19.57280197 75.9501298 21.0207179 75.52564771 22.46875 75.1015625 C25.98049047 74.0721752 29.49066412 73.03755942 33 72 C33.33 70.35 33.66 68.7 34 67 C25.75642326 59.88765861 17.48771995 52.8214191 9 46 C8.13890625 45.30390625 7.2778125 44.6078125 6.390625 43.890625 C5.17632812 42.92382812 5.17632812 42.92382812 3.9375 41.9375 C3.22464844 41.36902344 2.51179687 40.80054688 1.77734375 40.21484375 C-1.33396225 38.08821482 -3.02317792 39.39905957 -6.125 41 Z M-26 42 C-31.72181608 49.92612227 -37.33594071 57.89619753 -42.71289062 66.06201172 C-44.33179813 68.49958528 -45.97089641 70.92319627 -47.609375 73.34765625 C-48.24907227 74.29761475 -48.88876953 75.24757324 -49.54785156 76.22631836 C-50.83810052 78.14216702 -52.13166549 80.05578709 -53.42871094 81.96704102 C-54.01942383 82.84674561 -54.61013672 83.7264502 -55.21875 84.6328125 C-55.75435547 85.42574707 -56.28996094 86.21868164 -56.84179688 87.03564453 C-58.16929982 88.90707567 -58.16929982 88.90707567 -58 91 C-56.01613663 93.85461198 -56.01613663 93.85461198 -53 96 C-49.5497711 95.94786725 -49.5497711 95.94786725 -45.875 94.6875 C-45.19501953 94.4925293 -44.51503906 94.29755859 -43.81445312 94.09667969 C-41.53164075 93.43077364 -39.26681412 92.71839573 -37 92 C-35.24234961 91.45910834 -33.48453261 90.91875787 -31.7265625 90.37890625 C-27.13847256 88.95675983 -22.56675235 87.48915838 -18 86 C-17.57620984 71.944293 -18.85291624 57.99838783 -20 44 C-21.98 43.34 -23.96 42.68 -26 42 Z M-31.58251953 99.29589844 C-33.10330651 99.68006316 -34.62817803 100.04842597 -36.15673828 100.40039062 C-44.99551402 102.07028814 -44.99551402 102.07028814 -51.59765625 107.4309082 C-52.42733102 110.05726256 -52.42733102 110.05726256 -52.69091797 112.65698242 C-53.21787021 116.65158008 -55.08687668 118.28549873 -58 121 C-62.97055765 123.8135232 -67.39012672 124.85199259 -73 124 C-75.36522558 123.07796291 -77.70401807 122.08301035 -80 121 C-83.1790528 119.96463097 -84.53893451 119.81415359 -87.67895508 121.07983398 C-88.61634521 121.62969971 -89.55373535 122.17956543 -90.51953125 122.74609375 C-91.54111328 123.33583984 -92.56269531 123.92558594 -93.61523438 124.53320312 C-94.67033203 125.16162109 -95.72542969 125.79003906 -96.8125 126.4375 C-97.88693359 127.06205078 -98.96136719 127.68660156 -100.06835938 128.33007812 C-102.72006822 129.87396194 -105.36319465 131.43084262 -108 133 C-108 133.33 -108 133.66 -108 134 C-98.91797578 134.15201429 -89.89280838 133.67121516 -80.83203125 133.125 C-79.30077223 133.03503923 -77.76949646 132.94536322 -76.23820496 132.85595703 C-72.24493601 132.62205051 -68.25190363 132.38432509 -64.25891113 132.14575195 C-60.16949034 131.90211299 -56.0798535 131.66215779 -51.99023438 131.421875 C-43.99327593 130.9514832 -35.99656407 130.47704909 -28 130 C-27.52602783 128.74848145 -27.52602783 128.74848145 -27.04248047 127.47167969 C-26.61338379 126.38274414 -26.18428711 125.29380859 -25.7421875 124.171875 C-25.32308105 123.0900293 -24.90397461 122.00818359 -24.47216797 120.89355469 C-22.96130529 117.92394533 -21.96601266 116.86594822 -19.125 115.25 C-17.19713144 114.05552803 -17.19713144 114.05552803 -16 112 C-15.69045199 106.55847175 -16.23888398 101.38537555 -17 96 C-21.70121305 96 -27.03663625 98.1224513 -31.58251953 99.29589844 Z " fill="#303263" transform="translate(184,97)"/>
<path d="M0 0 C5.58443941 3.37468274 10.95580419 9.07321676 12.5625 15.5 C12.5625 16.82 12.5625 18.14 12.5625 19.5 C13.43479248 19.529729 13.43479248 19.529729 14.32470703 19.56005859 C28.79354064 20.07245517 43.15853515 21.03983712 57.5625 22.5 C57.83835938 21.58476562 58.11421875 20.66953125 58.3984375 19.7265625 C60.45370395 14.02975011 64.06729744 10.04900381 69.375 7.125 C75.57010509 4.38735356 81.9895203 3.69975205 88.515625 5.64453125 C95.01829238 8.36224911 100.3170117 12.13884293 103.5625 18.5 C106.59376186 26.68440702 106.3325773 33.22385476 102.890625 41.1015625 C99.96649094 46.3822046 95.48709178 50.97818765 89.703125 53.0625 C81.76368286 54.68515971 74.49436058 54.30834806 67.46484375 50.1796875 C65.54924657 49.25401887 65.54924657 49.25401887 63.66088867 50.29833984 C61.67076538 51.43800091 59.9000722 52.64686381 58.0859375 54.046875 C57.42400391 54.55524902 56.76207031 55.06362305 56.08007812 55.58740234 C55.37302734 56.13605957 54.66597656 56.6847168 53.9375 57.25 C53.19693359 57.82057129 52.45636719 58.39114258 51.69335938 58.97900391 C49.31312719 60.81514019 46.93726462 62.65679885 44.5625 64.5 C43.7674707 65.11649414 42.97244141 65.73298828 42.15332031 66.36816406 C37.67045434 69.84590314 33.19283613 73.33031138 28.71875 76.81933594 C25.00241297 79.71599175 21.28235643 82.60786601 17.5625 85.5 C17.7275 86.28375 17.8925 87.0675 18.0625 87.875 C19.3744476 97.3866201 18.76305114 104.5536937 13.5 112.6875 C8.25638852 118.36678247 1.67471706 120.80183984 -5.9375 121.125 C-13.23736224 120.79826883 -19.07430003 118.84222367 -24.31640625 113.6328125 C-26.88795613 110.44780855 -28.60546897 107.53459288 -29.625 103.5625 C-29.893125 102.551875 -30.16125 101.54125 -30.4375 100.5 C-32.9999809 99.6458397 -35.0149077 99.24708429 -37.66796875 98.96484375 C-38.47041016 98.87783203 -39.27285156 98.79082031 -40.09960938 98.70117188 C-40.93298828 98.61416016 -41.76636719 98.52714844 -42.625 98.4375 C-43.46998047 98.34662109 -44.31496094 98.25574219 -45.18554688 98.16210938 C-47.26921485 97.9384388 -49.35331795 97.71882849 -51.4375 97.5 C-51.71464844 98.41523437 -51.99179687 99.33046875 -52.27734375 100.2734375 C-54.38611069 106.13822367 -58.00985215 110.08559557 -63.5625 112.9375 C-70.33784396 115.59270236 -77.34161595 115.41353955 -84.25 113.375 C-90.84101631 109.49793158 -96.41258081 105.16153636 -98.4375 97.5 C-99.53472856 88.96069946 -99.36658775 81.68691334 -94.26171875 74.5234375 C-89.19385756 68.9021268 -83.60719346 66.75454019 -76.19140625 65.640625 C-70.92396192 65.37164912 -66.37541654 66.85402782 -61.4375 68.5 C-60.78265625 67.78457031 -60.1278125 67.06914063 -59.453125 66.33203125 C-58.5312858 65.32548804 -57.60940759 64.31898056 -56.6875 63.3125 C-56.19813965 62.77802246 -55.7087793 62.24354492 -55.20458984 61.69287109 C-52.54825732 58.79405877 -49.8856986 55.90135491 -47.2109375 53.01953125 C-46.68467773 52.45194092 -46.15841797 51.88435059 -45.61621094 51.29956055 C-44.60770696 50.21261385 -43.59801007 49.1267723 -42.58691406 48.04223633 C-36.37573349 42.25910698 -36.37573349 42.25910698 -33.5 35.125 C-33.809375 34.25875 -34.11875 33.3925 -34.4375 32.5 C-36.69806502 24.96478327 -37.07147947 18.73400606 -33.875 11.375 C-27.29051439 -0.64048469 -12.70691199 -5.6309061 0 0 Z M11.5625 29.5 C11.046875 30.69625 10.53125 31.8925 10 33.125 C6.80528334 39.51443333 2.19873394 43.06405821 -4.4375 45.5 C-4.91598394 59.18933472 -4.91598394 59.18933472 -2.4375 72.5 C-0.21727039 73.71212774 -0.21727039 73.71212774 2.4375 74.625 C3.32179688 74.95757812 4.20609375 75.29015625 5.1171875 75.6328125 C6.92568105 76.27416325 8.74212044 76.89320681 10.5625 77.5 C13.11226678 75.85607142 15.43487688 74.18079343 17.8125 72.3125 C18.52341797 71.76658203 19.23433594 71.22066406 19.96679688 70.65820312 C25.33058412 66.52015291 30.62216101 62.28933944 35.88427734 58.02294922 C39.21250922 55.33513514 42.58005389 52.72273681 46.0234375 50.18359375 C46.76013672 49.64025391 47.49683594 49.09691406 48.25585938 48.53710938 C49.68201987 47.49142858 51.11284687 46.45207491 52.54882812 45.41992188 C56.45384809 42.66810195 56.45384809 42.66810195 58.5625 38.5 C57.67930706 35.34979639 57.67930706 35.34979639 56.5625 32.5 C34.10810801 30.13440348 34.10810801 30.13440348 11.5625 29.5 Z M-24.4375 43.5 C-25.613125 44.655 -26.78875 45.81 -28 47 C-28.99193359 47.97453125 -28.99193359 47.97453125 -30.00390625 48.96875 C-31.97688814 51.02090452 -33.85384378 53.10174656 -35.71875 55.25 C-39.49830252 59.6019965 -43.41971524 63.80794157 -47.375 68 C-48.40077148 69.09054688 -48.40077148 69.09054688 -49.44726562 70.203125 C-51.10944145 71.96991329 -52.77329207 73.7351257 -54.4375 75.5 C-53.1175 79.46 -51.7975 83.42 -50.4375 87.5 C-43.5075 88.16 -36.5775 88.82 -29.4375 89.5 C-28.6125 87.953125 -27.7875 86.40625 -26.9375 84.8125 C-23.85682549 79.63901573 -20.70682124 77.19645436 -15.4375 74.5 C-14.4475 73.84 -13.4575 73.18 -12.4375 72.5 C-13.4275 59.63 -13.4275 59.63 -14.4375 46.5 C-17.7375 45.51 -21.0375 44.52 -24.4375 43.5 Z " fill="#3F65EF" transform="translate(98.4375,1.5)"/>
<path d="M0 0 C6.08933134 4.19193099 8.88136325 9.56979827 11.15625 16.484375 C12.33761345 23.84517806 11.1189647 30.16682026 7.15625 36.484375 C5.58893876 38.3802444 4.02943598 39.87135374 2.15625 41.484375 C3.08348081 44.52363156 4.08832438 47.49336494 5.15625 50.484375 C5.52363281 51.60199219 5.89101563 52.71960938 6.26953125 53.87109375 C8.65172097 60.61878889 8.65172097 60.61878889 14.0390625 64.83984375 C16.14002689 65.30701151 18.25651221 65.70958586 20.3828125 66.04296875 C24.94647659 66.76929839 26.90158262 68.77410215 29.5546875 72.390625 C33.09196782 77.9408328 34.46989861 82.95816869 33.15625 89.484375 C30.99023466 94.62092567 27.83147111 98.40857164 23.15625 101.484375 C17.80219413 103.26906029 11.35984806 103.52952047 5.953125 101.765625 C1.27583334 99.24395472 -1.55778236 95.79911675 -4.09375 91.234375 C-5.91985004 84.53867486 -5.27239179 79.25593022 -1.9140625 73.2109375 C-0.92418057 71.61412067 0.11410868 70.04758698 1.15625 68.484375 C0.59545342 66.23782331 0.59545342 66.23782331 -0.6171875 63.88671875 C-1.0296875 63.00306641 -1.4421875 62.11941406 -1.8671875 61.20898438 C-2.31320313 60.28923828 -2.75921875 59.36949219 -3.21875 58.421875 C-4.08372211 56.59907348 -4.94584867 54.77491807 -5.8046875 52.94921875 C-6.19446777 52.140896 -6.58424805 51.33257324 -6.98583984 50.49975586 C-7.84375 48.484375 -7.84375 48.484375 -7.84375 46.484375 C-8.66617187 46.54238281 -9.48859375 46.60039062 -10.3359375 46.66015625 C-18.31065648 46.98246013 -24.34517119 46.37299848 -30.84375 41.484375 C-36.4603389 35.6926326 -39.12700699 29.89916963 -39.28125 21.796875 C-39.14343039 14.05465584 -37.54960815 8.1369662 -31.94140625 2.609375 C-22.24967962 -5.12912458 -10.86256458 -5.86578488 0 0 Z " fill="#2F3263" transform="translate(38.84375,153.515625)"/>
<path d="M0 0 C5.93859201 4.1049215 9.0353015 8.86808192 10.8203125 15.859375 C11.98840933 23.56432141 10.85512647 31.16255141 6.2265625 37.5390625 C0.41650666 43.88254778 -5.55207391 46.65889038 -14.0859375 47.0390625 C-21.47843991 46.84362853 -27.20062757 44.86675242 -32.65234375 39.7890625 C-38.97066775 32.72471952 -40.00772382 25.97163333 -39.7734375 16.5390625 C-38.39492514 10.03664573 -35.39049591 4.26822991 -29.7734375 0.5390625 C-19.79681369 -4.5608091 -9.91942188 -5.63675084 0 0 Z " fill="#2F3163" transform="translate(195.7734375,208.4609375)"/>
<path d="M0 0 C3.3 0 6.6 0 10 0 C10.28992647 3.92827235 10.57449608 7.85689574 10.85449219 11.78588867 C10.99663687 13.76565883 11.14280109 15.74513909 11.2890625 17.72460938 C11.81672677 25.16844466 12.11182647 32.53874996 12 40 C13.23153809 39.63648438 14.46307617 39.27296875 15.73193359 38.8984375 C20.28956671 37.55392249 24.84823393 36.21294408 29.40722656 34.87304688 C31.38244689 34.29198502 33.35738322 33.70995687 35.33203125 33.12695312 C38.16592977 32.29044091 41.00082239 31.45737819 43.8359375 30.625 C44.72243988 30.36251465 45.60894226 30.1000293 46.52230835 29.82958984 C47.34300812 29.58934082 48.16370789 29.3490918 49.00927734 29.1015625 C49.73319672 28.88838379 50.45711609 28.67520508 51.20297241 28.45556641 C53 28 53 28 55 28 C55.99 32.95 55.99 32.95 57 38 C49.35474802 40.65436276 41.60219766 42.8835611 33.81396484 45.0715332 C31.6077712 45.69234812 29.40349186 46.31967026 27.19921875 46.94726562 C25.79177801 47.34414508 24.38422975 47.74064346 22.9765625 48.13671875 C21.70893066 48.49467529 20.44129883 48.85263184 19.13525391 49.22143555 C16 50 16 50 13 50 C13 55.28 13 60.56 13 66 C10.03 66.99 7.06 67.98 4 69 C3.01 61.575 3.01 61.575 2 54 C0.03675781 54.5775 -1.92648438 55.155 -3.94921875 55.75 C-5.86208367 56.3064698 -7.77496289 56.86289167 -9.68823242 57.41796875 C-11.01282724 57.80358776 -12.3367337 58.19157979 -13.65991211 58.58203125 C-15.56699839 59.14433123 -17.47683703 59.69726937 -19.38671875 60.25 C-20.53358154 60.58515625 -21.68044434 60.9203125 -22.86206055 61.265625 C-25.71910119 61.93426098 -28.08421594 62.15283389 -31 62 C-31.66 59.03 -32.32 56.06 -33 53 C-30.16867717 52.07674256 -27.33512755 51.1614475 -24.5 50.25 C-23.72785156 49.99734375 -22.95570313 49.7446875 -22.16015625 49.484375 C-14.20298579 46.93808045 -6.11417144 44.97159687 2 43 C1.90912109 41.57905029 1.90912109 41.57905029 1.81640625 40.12939453 C1.58959622 36.56985762 1.36696419 33.01006897 1.14550781 29.45019531 C1.0496186 27.9178985 0.95263962 26.38566945 0.85449219 24.85351562 C0.32405843 16.5614287 -0.13223342 8.31417628 0 0 Z " fill="#3F65EE" transform="translate(164,140)"/>
<path d="M0 0 C1.91796875 0.86279297 1.91796875 0.86279297 3.0078125 2.76464844 C3.28753906 3.57820801 3.56726562 4.39176758 3.85546875 5.22998047 C4.35288574 6.55739258 4.35288574 6.55739258 4.86035156 7.91162109 C5.20936523 8.84425781 5.55837891 9.77689453 5.91796875 10.73779297 C8.60955627 17.79755642 8.60955627 17.79755642 13.99609375 22.71435547 C16.98997164 23.3264044 19.87420655 23.63996997 22.91796875 23.86279297 C28.04372292 26.69831655 30.85421115 31.48017622 32.91796875 36.86279297 C33.95607869 42.23605 33.50411263 46.4917801 30.73046875 51.23779297 C27.79521168 55.35380501 24.77512209 58.24374185 19.91796875 59.86279297 C12.46397457 60.52754976 6.94305388 60.50712942 0.91796875 55.86279297 C-3.89881054 50.78564724 -5.54846209 46.11421553 -5.41015625 39.21044922 C-4.69822725 34.11676673 -1.883601 30.06514759 0.91796875 25.86279297 C0.35703882 23.63234639 0.35703882 23.63234639 -0.85546875 21.30029297 C-1.26796875 20.42115234 -1.68046875 19.54201172 -2.10546875 18.63623047 C-2.55148438 17.72099609 -2.9975 16.80576172 -3.45703125 15.86279297 C-4.32387687 14.05261535 -5.18607571 12.24020307 -6.04296875 10.42529297 C-6.43274902 9.62220703 -6.8225293 8.81912109 -7.22412109 7.99169922 C-8.08203125 5.86279297 -8.08203125 5.86279297 -8.08203125 2.86279297 C-2.72720122 -0.1797241 -2.72720122 -0.1797241 0 0 Z " fill="#303263" transform="translate(39.08203125,196.13720703125)"/>
<path d="M0 0 C4 6.75 4 6.75 4 9 C3.3387915 9.35827881 2.67758301 9.71655762 1.99633789 10.08569336 C-0.98259493 11.7011502 -3.96006309 13.31928784 -6.9375 14.9375 C-7.97841797 15.50146484 -9.01933594 16.06542969 -10.09179688 16.64648438 C-11.08115234 17.18466797 -12.07050781 17.72285156 -13.08984375 18.27734375 C-14.00628662 18.77484131 -14.92272949 19.27233887 -15.86694336 19.78491211 C-17.91549514 20.82735702 -17.91549514 20.82735702 -19 22 C-4.12637177 21.53929583 10.71209441 20.86878964 25.5625 19.9375 C37.05133269 19.21813146 48.48509364 18.70474599 60 19 C60 21.97 60 24.94 60 28 C56.71592746 29.09469085 53.98852614 29.27903423 50.53173828 29.48071289 C49.87918564 29.5198732 49.226633 29.55903351 48.55430603 29.59938049 C46.39319527 29.72793182 44.23179137 29.85046244 42.0703125 29.97265625 C40.5587317 30.0606569 39.04716573 30.14891262 37.53561401 30.2374115 C34.35982699 30.42240694 31.18388831 30.60445636 28.0078125 30.78442383 C23.97212301 31.01330826 19.93687634 31.24912774 15.90172005 31.48720646 C12.77368824 31.67100801 9.64545262 31.85113406 6.51714706 32.03021049 C5.03180591 32.11563998 3.54652546 32.20213251 2.06131363 32.28978157 C-6.96621831 32.82002581 -15.95491296 33.11753572 -25 33 C-25.42317708 30.265625 -25.84635417 27.53125 -26.26953125 24.796875 C-27.03218264 21.87677662 -28.03774101 20.25794185 -30 18 C-28.49987534 13.89864907 -26.18303322 12.62605028 -22.44140625 10.546875 C-20.77948242 9.61875 -20.77948242 9.61875 -19.08398438 8.671875 C-18.50608154 8.35669922 -17.92817871 8.04152344 -17.33276367 7.71679688 C-15.56511431 6.75142776 -13.80858431 5.76788682 -12.05273438 4.78125 C-3.4093192 0 -3.4093192 0 0 0 Z " fill="#3F65EE" transform="translate(97,208)"/>
<path d="M0 0 C4.21433795 2.77763183 6.3955374 5.1866122 8 10 C8.61300259 15.86837844 8.88890343 21.08543877 6.375 26.5 C1.33090439 31.80957433 -2.60018813 35.10917288 -10.1875 35.3125 C-15.62709017 35.23345708 -19.70392879 34.44854696 -24 31 C-28.19965307 26.45473957 -29.82422324 21.58145144 -30.125 15.453125 C-29.82647837 9.59463804 -28.01406667 5.59661553 -23.6875 1.625 C-16.09862309 -4.22973103 -8.42122694 -4.36656212 0 0 Z " fill="#3F65EF" transform="translate(248,34)"/>
<path d="M0 0 C3.78443516 2.69610086 6.30988589 5.82809517 7.79296875 10.27734375 C8.74213848 22.92685573 8.74213848 22.92685573 4.79296875 28.27734375 C-0.03439761 33.10471011 -3.53725756 35.41145539 -10.51953125 35.52734375 C-16.76809396 35.45325012 -20.2126227 33.9997875 -24.95703125 29.90234375 C-29.03785908 25.14137794 -30.61148137 19.53152362 -30.20703125 13.27734375 C-27.86730464 6.18537241 -24.49204069 1.65790455 -17.95703125 -1.97265625 C-11.47375835 -3.74082159 -5.88420995 -3.30032534 0 0 Z " fill="#2F3163" transform="translate(248.20703125,151.72265625)"/>
<path d="M0 0 C4.9030577 2.7401704 7.09947799 5.63170735 8.625 11 C9.96654809 16.40398247 10.01628828 20.99008979 7.7734375 26.14453125 C4.85034525 30.8672143 0.03478198 34.68054098 -5.375 36 C-12.10336361 36.54260997 -17.11282435 35.60974052 -22.5625 31.25 C-27.39290739 25.2536322 -29.02529229 21.3051237 -28.6875 13.578125 C-27.92484653 7.28623386 -24.74477921 4.08527605 -20.09375 0.19921875 C-14.18615057 -3.92267449 -6.21698447 -2.74468351 0 0 Z " fill="#2F3163" transform="translate(124.375,186)"/>
<path d="M0 0 C0.99 2.97 1.98 5.94 3 9 C-5.17065709 12.83372349 -13.47783524 16.28255849 -21.8487854 19.64743042 C-25.86609729 21.26244506 -29.88009818 22.88565833 -33.89453125 24.5078125 C-34.75884262 24.85684128 -35.62315399 25.20587006 -36.51365662 25.56547546 C-48.29254508 30.32516801 -60.05160103 35.13357577 -71.8125 39.9375 C-74.02554858 40.84123899 -76.23860186 41.74496646 -78.45166016 42.64868164 C-83.63462852 44.76532666 -88.81740306 46.88244571 -94 49 C-99 41.5 -99 41.5 -99 39 C-46.46350588 17.58170345 -46.46350588 17.58170345 -23.4375 8.25 C-22.28563705 7.78314285 -22.28563705 7.78314285 -21.11050415 7.30685425 C-16.74105144 5.53613308 -12.37155648 3.76552214 -8 2 C-6.64853882 1.42137207 -6.64853882 1.42137207 -5.26977539 0.83105469 C-3 0 -3 0 0 0 Z " fill="#3F65EE" transform="translate(144,121)"/>
<path d="M0 0 C3.7668148 1.87528926 6.3477872 4.51871316 8.21484375 8.28515625 C9.92696073 13.61399372 9.8128279 19.17089223 7.3125 24.21484375 C3.78667908 28.73512699 0.79621926 30.9279858 -4.8125 31.71875 C-9.34716917 31.90974829 -12.42330579 31.67155374 -16.5625 29.71484375 C-20.3231784 26.22933694 -22.79990565 23.75483032 -23.5078125 18.49609375 C-23.68596164 13.69794352 -23.53847955 10.23041509 -21.5 5.83984375 C-15.26674412 -0.72147823 -8.8225336 -2.74082386 0 0 Z " fill="#3F65EF" transform="translate(227.125,91.66015625)"/>
<path d="M0 0 C2.64 1.65 5.28 3.3 8 5 C6.70567394 8.518041 5.18093159 11.44724818 3.05078125 14.52734375 C2.456604 15.39214355 1.86242676 16.25694336 1.25024414 17.14794922 C0.61078857 18.06850098 -0.02866699 18.98905273 -0.6875 19.9375 C-2.03660402 21.89703512 -3.38555766 23.85667378 -4.734375 25.81640625 C-5.43240234 26.82719238 -6.13042969 27.83797852 -6.84960938 28.87939453 C-10.39932532 34.03067396 -13.9170172 39.20371975 -17.4375 44.375 C-18.70688137 46.23708135 -19.97639863 48.09907007 -21.24609375 49.9609375 C-22.15488281 51.29382813 -23.06367187 52.62671875 -24 54 C-28.95 52.515 -28.95 52.515 -34 51 C-32.48368429 46.59191281 -30.10865443 43.02256093 -27.4375 39.25 C-26.45474643 37.84313389 -25.47305182 36.43552769 -24.4921875 35.02734375 C-23.67186035 33.85147705 -23.67186035 33.85147705 -22.83496094 32.65185547 C-20.74833853 29.63630297 -18.68779568 26.6035499 -16.6328125 23.56640625 C-16.25614944 23.01010529 -15.87948639 22.45380432 -15.4914093 21.88064575 C-13.60548974 19.0946128 -11.72154995 16.30727231 -9.83959961 13.51855469 C-9.1410083 12.48762695 -8.44241699 11.45669922 -7.72265625 10.39453125 C-7.10140869 9.47518799 -6.48016113 8.55584473 -5.84008789 7.60864258 C-3.98932044 4.98485988 -2.03124648 2.48581469 0 0 Z " fill="#3F64EE" transform="translate(150,133)"/>
<path d="M0 0 C4.55400978 0.87596052 7.25610017 3.54714077 10.625 6.5625 C11.87776309 7.66146077 13.13167542 8.7591128 14.38671875 9.85546875 C15.0007959 10.39349121 15.61487305 10.93151367 16.24755859 11.48583984 C19.35378574 14.1697101 22.58044891 16.69785881 25.80078125 19.2421875 C28.93771072 21.74950236 31.96984821 24.3650854 35 27 C34.01 29.97 33.02 32.94 32 36 C27.82473403 36 25.9750232 33.70064621 23 31.0625 C21.82747866 30.04611803 20.65429117 29.03050408 19.48046875 28.015625 C18.89442871 27.50580078 18.30838867 26.99597656 17.70458984 26.47070312 C10.32044816 20.09973929 2.62892861 14.07335531 -5 8 C-3.58208437 5.06553114 -2.01667393 2.56667591 0 0 Z " fill="#3F64EE" transform="translate(188,128)"/>
<path d="M0 0 C2.70391306 1.19849853 3.14898689 2.55436383 4.34106445 5.22998047 C4.73874023 6.11556641 5.13641602 7.00115234 5.54614258 7.91357422 C5.94639648 8.84556641 6.34665039 9.77755859 6.7590332 10.73779297 C7.38841797 12.12417969 7.38841797 12.12417969 8.03051758 13.53857422 C11.08017848 20.46185713 11.08017848 20.46185713 9.9465332 23.86279297 C8.09887695 24.81201172 8.09887695 24.81201172 5.8840332 25.55029297 C5.15055664 25.80166016 4.41708008 26.05302734 3.66137695 26.31201172 C3.09547852 26.49376953 2.52958008 26.67552734 1.9465332 26.86279297 C0.6523592 24.30153233 -0.63887464 21.73885938 -1.9284668 19.17529297 C-2.29327148 18.4540625 -2.65807617 17.73283203 -3.03393555 16.98974609 C-8.0534668 6.9963157 -8.0534668 6.9963157 -8.0534668 2.86279297 C-2.69770538 -0.18025329 -2.69770538 -0.18025329 0 0 Z " fill="#3F64ED" transform="translate(39.053466796875,196.13720703125)"/>
</svg>
