<?xml version="1.0" encoding="UTF-8"?>
<svg version="1.1" xmlns="http://www.w3.org/2000/svg" width="512" height="512">
<path d="M0 0 C8.78995052 9.63028996 13.91068769 20.98126885 14.3125 34.1875 C13.67895481 41.91675129 11.92103595 48.83018447 9 56 C15.61126421 62.1253299 22.33294267 68.00285218 29.34960938 73.66308594 C32.70629176 76.38219729 36.03972123 79.12971239 39.375 81.875 C40.46989746 82.77593384 40.46989746 82.77593384 41.58691406 83.69506836 C46.04382709 87.36899678 50.47290655 91.07312317 54.875 94.8125 C55.91134539 95.69023753 56.94780128 96.56784462 57.984375 97.4453125 C59.51545347 98.74236602 61.04638229 100.03961221 62.57226562 101.34277344 C64.08391028 102.63134226 65.60429809 103.90963269 67.125 105.1875 C68.42824219 106.29158203 68.42824219 106.29158203 69.7578125 107.41796875 C71.95118876 109.28825776 71.95118876 109.28825776 75 109 C77.23214909 107.39302876 79.27016818 105.61645005 81.35546875 103.82421875 C87.4226136 99.63905384 93.46986009 98.4377429 100.75 98.5 C101.5342334 98.50572021 102.3184668 98.51144043 103.12646484 98.51733398 C112.90666681 98.81513181 121.14651568 102.17686919 128.25 108.984375 C136.10106727 118.02712212 138.53036611 126.92273007 138.3125 138.6875 C137.41545012 148.19622873 133.14046392 156.22512942 126.1875 162.68359375 C115.81500464 171.06942165 104.93644729 172.36254807 92 171 C83.59938651 169.36534454 77.80003483 164.05657483 72 158 C71.34 157.01 70.68 156.02 70 155 C64.87912019 155.62491361 60.03630321 156.70320064 55.0769043 158.13305664 C54.31831619 158.34778122 53.55972809 158.5625058 52.77815247 158.78373718 C50.29231068 159.48840233 47.80830669 160.19933583 45.32421875 160.91015625 C43.59036906 161.40244347 41.85638353 161.89425249 40.12226868 162.38560486 C35.57311645 163.67559443 31.0253956 164.97055229 26.47808838 166.26702881 C19.18259944 168.34664446 11.88557226 170.42082245 4.58738136 172.49093437 C2.03736048 173.21537167 -0.51166311 173.94324226 -3.06062317 174.67140198 C-4.61500462 175.11317564 -6.16942065 175.55482766 -7.72387695 175.99633789 C-8.43504669 176.20048309 -9.14621643 176.4046283 -9.87893677 176.61495972 C-14.77261919 178 -14.77261919 178 -17 178 C-16.93941406 178.77190674 -16.87882812 179.54381348 -16.81640625 180.33911133 C-16.54307353 183.83014835 -16.27151574 187.32132121 -16 190.8125 C-15.85691406 192.63491211 -15.85691406 192.63491211 -15.7109375 194.49414062 C-15.62070312 195.65751953 -15.53046875 196.82089844 -15.4375 198.01953125 C-15.31181641 199.62985229 -15.31181641 199.62985229 -15.18359375 201.27270508 C-15.05530301 203.17847081 -15 205.08992107 -15 207 C-14.12601562 206.85691406 -14.12601562 206.85691406 -13.234375 206.7109375 C1.35080153 204.7387281 13.46258421 209.30975496 25 218 C25.60714844 218.45503906 26.21429688 218.91007813 26.83984375 219.37890625 C33.97132459 225.57245991 40.38236988 237.67362892 41.17700195 247.09960938 C41.60471761 262.76320418 40.27082028 274.48442312 30 287 C29.42636719 287.71027344 28.85273438 288.42054688 28.26171875 289.15234375 C20.1967599 298.14986744 8.12355664 303.31094817 -3.79296875 304.2109375 C-17.41782867 304.66921222 -29.76370056 300.67941582 -40.1875 291.875 C-46.32880366 286.09153608 -51.300497 279.04659547 -54 271 C-54 269.68 -54 268.36 -54 267 C-54.61279753 267.05039869 -55.22559505 267.10079739 -55.8569622 267.15272331 C-74.25990373 268.65150709 -92.67450856 269.79100703 -111.10824442 270.81822062 C-114.99063786 271.03515002 -118.87285622 271.25517166 -122.75509644 271.474823 C-130.06042657 271.88769796 -137.36590335 272.29791329 -144.67144096 272.70709884 C-153.00816008 273.17417671 -161.3447048 273.64433265 -169.68123841 274.11470819 C-186.78730457 275.07982337 -203.89357875 276.04119976 -221 277 C-221.13954102 278.1039209 -221.27908203 279.2078418 -221.42285156 280.34521484 C-222.77121722 288.88372324 -229.62403877 295.44170585 -236.1875 300.625 C-244.21175603 306.09529927 -253.51255068 307.03768977 -263 306 C-273.79388329 303.31529689 -281.35815665 297.85107056 -288 289 C-293.39687773 279.45881501 -294.65878913 268.60674357 -292 257.9375 C-289.97312924 251.9156376 -286.21517866 246.70739697 -282 242 C-281.34 242 -280.68 242 -280 242 C-286.37624843 226.86327837 -293.09141355 211.9008346 -300 197 C-301.29292969 197.04640625 -302.58585937 197.0928125 -303.91796875 197.140625 C-319.07864452 197.5248279 -330.97171282 196.02357265 -343 186 C-343.70898438 185.42636719 -344.41796875 184.85273438 -345.1484375 184.26171875 C-353.91859029 176.4156242 -359.49297199 164.2438998 -360.2109375 152.5703125 C-360.42054441 144.5568792 -359.80138558 137.52720125 -357 130 C-356.74476563 129.30648437 -356.48953125 128.61296875 -356.2265625 127.8984375 C-350.71836876 115.21443173 -339.20781853 106.9924193 -326.83203125 101.98046875 C-314.91919357 97.85616219 -301.439411 99.05322767 -290 104 C-284.37797325 106.86472701 -280.14757686 110.73911707 -275.73046875 115.2109375 C-274.84125732 116.1086084 -273.9520459 117.0062793 -273.03588867 117.93115234 C-272.36404541 118.61387207 -271.69220215 119.2965918 -271 120 C-270.31526611 119.71503662 -269.63053223 119.43007324 -268.92504883 119.13647461 C-253.57735123 112.75475121 -238.2034672 106.44162987 -222.79516602 100.20767212 C-209.12218732 94.67572591 -195.46035342 89.11680257 -181.80236816 83.54794312 C-162.27196363 75.584704 -142.73309312 67.64304557 -123.17944336 59.73706055 C-109.44286425 54.18271233 -95.71727617 48.60186797 -82 43 C-81.97421875 41.75605469 -81.9484375 40.51210937 -81.921875 39.23046875 C-81.64085122 29.88337337 -81.28554759 21.50219569 -77 13 C-76.58878906 12.15308594 -76.17757813 11.30617187 -75.75390625 10.43359375 C-69.5246922 -1.12486292 -59.60315641 -7.98134863 -47.4375 -12.25 C-29.79610234 -16.09903222 -13.1998122 -12.53427545 0 0 Z M-83.34375 63.33984375 C-84.20302597 63.69302673 -85.06230194 64.04620972 -85.94761658 64.41009521 C-87.81643115 65.17859061 -89.68460383 65.94864833 -91.55221558 66.72006226 C-96.57486442 68.79442096 -101.60226705 70.8572094 -106.62890625 72.921875 C-107.66209488 73.3466362 -108.69528351 73.7713974 -109.75978088 74.20903015 C-119.97098498 78.40498066 -130.20181945 82.55169224 -140.4375 86.6875 C-142.19825782 87.3993754 -143.95899999 88.11128951 -145.71972656 88.82324219 C-149.17030266 90.21836506 -152.62100029 91.61318678 -156.07177734 93.0078125 C-178.36694604 102.01930507 -200.64591563 111.07057389 -222.9173584 120.14053345 C-225.32281879 121.12014573 -227.72833519 122.09962048 -230.13391113 123.07894897 C-233.52829101 124.46096006 -236.92239057 125.84365727 -240.31640625 127.2265625 C-241.31815384 127.63434433 -242.31990143 128.04212616 -243.352005 128.46226501 C-250.24911688 131.27382769 -257.12846116 134.12652402 -264 137 C-263.95359375 138.22074219 -263.9071875 139.44148438 -263.859375 140.69921875 C-263.44703823 156.14925736 -265.58459615 169.77197942 -276.38671875 181.6171875 C-278.54897836 183.79641932 -280.74098119 185.9217027 -283 188 C-281.39290848 193.26563166 -279.18836199 198.14005432 -276.8671875 203.1171875 C-276.27213913 204.4029216 -276.27213913 204.4029216 -275.66506958 205.71463013 C-274.40469847 208.43614904 -273.13991908 211.15559239 -271.875 213.875 C-271.01663468 215.72642696 -270.1585586 217.57798805 -269.30078125 219.4296875 C-267.20386658 223.95468484 -265.10299752 228.47782667 -263 233 C-262.05825928 233.05188477 -261.11651855 233.10376953 -260.14624023 233.15722656 C-258.90044189 233.23424805 -257.65464355 233.31126953 -256.37109375 233.390625 C-255.14060303 233.46313477 -253.9101123 233.53564453 -252.64233398 233.61035156 C-245.71155097 234.35179065 -239.64671779 236.54949637 -234.125 240.8125 C-231.31668363 243.26786856 -231.31668363 243.26786856 -228.68115234 242.83300781 C-225.51435147 241.84911375 -222.87310833 240.47757204 -219.9765625 238.859375 C-219.40161545 238.54056366 -218.8266684 238.22175232 -218.23429871 237.89328003 C-216.36075816 236.85213286 -214.49283314 235.80134662 -212.625 234.75 C-211.33059607 234.02734139 -210.0359156 233.30517788 -208.7409668 232.58349609 C-205.45686145 230.75089479 -202.17761707 228.90977015 -198.8994751 227.06652832 C-197.07566795 226.04248648 -195.24999909 225.02187384 -193.42333984 224.00292969 C-190.21736031 222.21447194 -187.01420744 220.42109237 -183.8125 218.625 C-182.36254639 217.81434082 -182.36254639 217.81434082 -180.88330078 216.98730469 C-180.00013184 216.48875977 -179.11696289 215.99021484 -178.20703125 215.4765625 C-177.4385083 215.04424316 -176.66998535 214.61192383 -175.87817383 214.16650391 C-173.86010869 213.01184686 -173.86010869 213.01184686 -172 211 C-172.05843457 208.92039627 -172.05843457 208.92039627 -172.5 206.5625 C-173.80172009 195.69392141 -170.62575405 186.40303867 -164 177.875 C-157.81874598 171.19398501 -150.21235701 168.00911012 -141.25 167.3125 C-137.50523097 166.86696183 -135.57953966 166.59121413 -132.90332031 163.86108398 C-132.30100586 162.95688721 -131.69869141 162.05269043 -131.078125 161.12109375 C-130.40104492 160.12424561 -129.72396484 159.12739746 -129.02636719 158.1003418 C-128.35766602 157.077229 -127.68896484 156.05411621 -127 155 C-126.3802832 154.0819458 -125.76056641 153.1638916 -125.12207031 152.21801758 C-123.22936606 149.40732666 -121.36297879 146.58046777 -119.5 143.75 C-113.97593867 135.40643373 -108.36042835 127.13720504 -102.625 118.9375 C-97.99778111 112.32088051 -93.40760541 105.68998056 -88.95800781 98.95263672 C-84.65609807 92.44928868 -80.2628745 86.00797683 -75.875 79.5625 C-75.48466583 78.98904846 -75.09433167 78.41559692 -74.69216919 77.82476807 C-72.4623683 74.54921673 -70.23159587 71.27432866 -68 68 C-68.78281305 66.66144944 -69.57651877 65.32926356 -70.375 64 C-70.81585938 63.2575 -71.25671875 62.515 -71.7109375 61.75 C-72.13632812 61.1725 -72.56171875 60.595 -73 60 C-76.64561574 60 -80.00936449 61.95622275 -83.34375 63.33984375 Z M-8.5625 73.25 C-12.85067339 76.01174103 -17.30910975 78.02844843 -22 80 C-22.08553863 88.45308192 -21.83609504 96.84906776 -21.37890625 105.2890625 C-21.31468979 106.51354095 -21.25047333 107.73801941 -21.18431091 108.99960327 C-21.04879399 111.5694777 -20.91173414 114.13927119 -20.77319336 116.70898438 C-20.56272141 120.62088481 -20.3581519 124.53306226 -20.15429688 128.4453125 C-20.02118396 130.95574778 -19.88773194 133.46616511 -19.75390625 135.9765625 C-19.6934462 137.13411041 -19.63298615 138.29165833 -19.57069397 139.48428345 C-19.21525858 146.01208573 -18.72221326 152.50220161 -18 159 C-7.19559106 156.36270865 3.52528661 153.5074927 14.21875 150.453125 C15.69797612 150.03263691 17.17726619 149.61237375 18.65661621 149.19232178 C22.49080885 148.10299272 26.32414379 147.01067665 30.1572876 145.91766357 C34.09261039 144.79611247 38.0287651 143.67748871 41.96484375 142.55859375 C49.64403084 140.37520586 57.32231132 138.18865107 65 136 C65.06756528 134.56323176 65.11575541 133.12554368 65.15576172 131.68774414 C65.18467499 130.88728165 65.21358826 130.08681915 65.24337769 129.26210022 C65.17253037 126.64504227 65.17253037 126.64504227 62.5078125 123.99609375 C61.40186222 123.11533094 60.27262376 122.26322929 59.125 121.4375 C58.53074219 120.97408203 57.93648438 120.51066406 57.32421875 120.03320312 C56.12249877 119.09896275 54.9119098 118.17600989 53.69238281 117.26513672 C51.4172689 115.56438076 49.21044059 113.78367236 47 112 C46.2059375 111.3709375 45.411875 110.741875 44.59375 110.09375 C41.51920272 107.61188653 38.50829908 105.06141407 35.5 102.5 C31.02050095 98.6880316 26.48936306 94.96201998 21.87890625 91.30859375 C17.20540177 87.56091241 12.59384459 83.7380231 7.97558594 79.92260742 C6.59754204 78.784658 5.21821655 77.64825815 3.83740234 76.51367188 C2.25551217 75.21049368 0.68342565 73.89543153 -0.88671875 72.578125 C-4.22224489 70.08726999 -5.37506475 71.11216464 -8.5625 73.25 Z M-53 78 C-60.46550118 88.84667005 -67.91033157 99.70731403 -75.34277344 110.57666016 C-78.06109401 114.55162332 -80.78059969 118.52577548 -83.5 122.5 C-84.58333917 124.08332934 -85.6666725 125.66666268 -86.75 127.25 C-93.25 136.75 -93.25 136.75 -94.87792969 139.12915039 C-95.95166107 140.69853712 -97.02523114 142.26803423 -98.09863281 143.83764648 C-100.95250249 148.01032356 -103.80986775 152.1805556 -106.671875 156.34765625 C-107.27064453 157.22035156 -107.86941406 158.09304688 -108.48632812 158.9921875 C-109.64025443 160.67387854 -110.79516335 162.35489587 -111.95117188 164.03515625 C-112.46744141 164.78796875 -112.98371094 165.54078125 -113.515625 166.31640625 C-113.97227539 166.98099854 -114.42892578 167.64559082 -114.89941406 168.33032227 C-116.05605015 170.01305123 -116.05605015 170.01305123 -117 172 C-116.45730469 172.45890625 -115.91460937 172.9178125 -115.35546875 173.390625 C-114.64003906 174.00421875 -113.92460937 174.6178125 -113.1875 175.25 C-112.47980469 175.85328125 -111.77210938 176.4565625 -111.04296875 177.078125 C-109.08110329 178.92370398 -107.54330375 180.79945332 -106 183 C-98.44916128 182.36498164 -91.42888736 180.30685861 -84.1640625 178.21875 C-82.83520238 177.84097468 -81.50621035 177.46366309 -80.17709351 177.08679199 C-77.40755563 176.30020652 -74.63914489 175.50981459 -71.87158203 174.71630859 C-68.32221137 173.69871051 -64.77090927 172.68806567 -61.21885109 171.67989349 C-58.48178106 170.90272106 -55.74535775 170.1232938 -53.00916672 169.34303284 C-51.69911897 168.96946765 -50.38896164 168.59628652 -49.07869339 168.22349548 C-47.25450117 167.7038253 -45.43118324 167.18108899 -43.60791016 166.65820312 C-42.57058746 166.36143677 -41.53326477 166.06467041 -40.46450806 165.75891113 C-38.02823803 165.08252704 -38.02823803 165.08252704 -36 164 C-36.64862624 145.44583282 -37.54422259 126.91224993 -38.5625 108.375 C-38.70266099 105.79558307 -38.84263575 103.21615602 -38.98242188 100.63671875 C-39.31948013 94.42436146 -39.65879 88.21213058 -40 82 C-41.26990761 81.51190754 -42.54096662 81.02681011 -43.8125 80.54296875 C-44.52019531 80.27250732 -45.22789062 80.0020459 -45.95703125 79.72338867 C-48.27647879 78.90210245 -50.5701863 78.37965839 -53 78 Z M-41.98852539 184.65234375 C-42.61289993 184.82790802 -43.23727448 185.00347229 -43.88056946 185.18435669 C-45.95328141 185.76750355 -48.02546736 186.35249744 -50.09765625 186.9375 C-51.53109093 187.34117781 -52.96455792 187.74474087 -54.39805603 188.14819336 C-58.17790623 189.21235204 -61.95731364 190.27807513 -65.7366333 191.34411621 C-69.59043384 192.43087037 -73.44464785 193.51615602 -77.29882812 194.6015625 C-84.86629262 196.73293173 -92.43329033 198.86595257 -100 201 C-100.19553467 201.95914307 -100.39106934 202.91828613 -100.5925293 203.90649414 C-100.98565308 205.79549438 -100.98565308 205.79549438 -101.38671875 207.72265625 C-101.64412842 208.97054932 -101.90153809 210.21844238 -102.16674805 211.50415039 C-104.27502372 220.3492718 -109.15252597 227.58800348 -116.6875 232.75 C-126.06743819 238.16356433 -136.7017416 239.59734003 -147.125 236.8125 C-152.7435555 234.95146427 -157.80022885 232.19977115 -162 228 C-165.1667485 228.39662886 -167.69299964 229.77904728 -170.46484375 231.30078125 C-171.77376587 232.01621094 -171.77376587 232.01621094 -173.10913086 232.74609375 C-174.04249268 233.26300781 -174.97585449 233.77992188 -175.9375 234.3125 C-176.90373291 234.84359375 -177.86996582 235.3746875 -178.86547852 235.921875 C-188.2378227 241.09198455 -197.53368536 246.3949617 -206.80810547 251.73828125 C-209.86787106 253.49957203 -212.93366891 255.25016907 -216 257 C-216 257.33 -216 257.66 -216 258 C-197.41652843 257.38284831 -178.86351601 256.41199722 -160.30525923 255.28317332 C-156.61928832 255.05958785 -152.93312229 254.83926335 -149.24697876 254.61854553 C-142.3132629 254.20289751 -135.37971898 253.78445297 -128.44623721 253.3649202 C-120.53298085 252.88624593 -112.61953051 252.41081628 -104.70606494 251.93561542 C-88.47049648 250.9606045 -72.23516775 249.98166113 -56 249 C-55.79535629 248.38090256 -55.59071259 247.76180511 -55.37986755 247.12394714 C-54.97611656 245.90666679 -54.97611656 245.90666679 -54.56420898 244.66479492 C-54.16443092 243.45771126 -54.16443092 243.45771126 -53.75657654 242.22624207 C-51.63366922 235.97954352 -48.88885364 230.34717375 -45 225 C-44.4225 224.175 -43.845 223.35 -43.25 222.5 C-41 220 -41 220 -39.01269531 219.00146484 C-36.35557034 217.58381681 -34.8124624 216.4275371 -33 214 C-32.26631189 208.63558143 -32.88923218 203.46622447 -33.5 198.125 C-33.63666901 196.65920863 -33.76952217 195.19305614 -33.8984375 193.7265625 C-34.22156977 190.14580009 -34.5966186 186.57271608 -35 183 C-37.31386561 183 -39.79870162 184.03525055 -41.98852539 184.65234375 Z " fill="#000000" transform="translate(367,199)"/>
<path d="M0 0 C8.92605057 6.02283008 15.04273751 15.74497684 18 26 C18.36846734 28.32804368 18.70870183 30.66104704 19 33 C19.6813501 33.03963867 20.3627002 33.07927734 21.06469727 33.12011719 C49.39678787 34.78847291 77.69661799 36.90828764 106 39 C106.32395752 38.18958252 106.64791504 37.37916504 106.98168945 36.54418945 C107.63463989 34.93870239 107.63463989 34.93870239 108.30078125 33.30078125 C108.72786377 32.24286377 109.15494629 31.18494629 109.5949707 30.0949707 C114.65275921 18.95377437 123.97603687 12.40131277 134.9921875 7.7265625 C145.41449298 3.95506674 160.60511195 4.18829163 170.65234375 8.7421875 C171.42707031 9.15726563 172.20179688 9.57234375 173 10 C174.30130859 10.65355469 174.30130859 10.65355469 175.62890625 11.3203125 C187.32943834 17.70242091 194.19730679 28.49469578 197.91796875 41.11328125 C200.59493428 54.67777103 198.37014123 67.71540266 190.75 79.25 C183.52182726 88.88249125 172.99594507 96.50549958 161 99 C145.89332303 100.39827473 133.08943778 98.84024005 121 89 C120.56171875 89.32871094 120.1234375 89.65742187 119.671875 89.99609375 C119.03765625 90.47175781 118.4034375 90.94742188 117.75 91.4375 C117.01652344 91.98792969 116.28304688 92.53835937 115.52734375 93.10546875 C113.77076677 94.42222274 112.01285602 95.73719856 110.25390625 97.05078125 C103.33805266 102.22159874 96.47658745 107.45755842 89.64111328 112.73388672 C86.92977871 114.82567207 84.21471548 116.91260557 81.5 119 C80.41664851 119.83330973 79.33331518 120.66664307 78.25 121.5 C58.75 136.5 58.75 136.5 57.12426758 137.75048828 C56.04327879 138.58206811 54.96238651 139.41377342 53.8815918 140.24560547 C51.13817334 142.35681792 48.39300081 144.46567891 45.64453125 146.5703125 C39.03369342 151.63659807 32.47837383 156.764655 26 162 C26.433125 163.00353516 26.433125 163.00353516 26.875 164.02734375 C31.07688953 174.89681494 32.07754878 187.5966611 28.04296875 198.734375 C21.94184485 211.98775276 13.14376771 222.13884537 -0.75 227.375 C-13.0530111 231.40143999 -25.0018069 230.96449095 -36.92578125 225.7109375 C-49.57459114 219.16784635 -58.1602261 209.88121621 -62.58984375 196.16796875 C-63.10885274 193.4246355 -63.0249363 190.78645367 -63 188 C-64.09465576 187.91435791 -65.18931152 187.82871582 -66.31713867 187.74047852 C-70.38948377 187.42107391 -74.46150754 187.09772162 -78.53344727 186.77319336 C-80.29377908 186.6334485 -82.05419554 186.4947655 -83.81469727 186.35717773 C-86.34935287 186.15890052 -88.88367667 185.95677062 -91.41796875 185.75390625 C-92.20149216 185.6934462 -92.98501556 185.63298615 -93.7922821 185.57069397 C-97.59181266 185.26285439 -101.28277311 184.85732387 -105 184 C-105.14695312 184.54527344 -105.29390625 185.09054688 -105.4453125 185.65234375 C-108.77360263 196.8422847 -115.49791087 205.54174492 -125.58984375 211.5390625 C-139.62833981 218.75886048 -152.98025883 219.71946467 -168 215 C-180.02613422 210.13495505 -188.59322379 201.5824758 -193.8828125 189.79296875 C-199.06603874 176.83490316 -198.10455662 163.27693912 -192.96875 150.41796875 C-188.03983379 139.57768343 -180.03838852 131.56398165 -169.171875 126.74609375 C-155.69655534 121.88753 -142.13425222 122.63864131 -129 128 C-128.35417969 128.3196875 -127.70835938 128.639375 -127.04296875 128.96875 C-124.67024981 129.22358947 -124.67024981 129.22358947 -122.23046875 126.75390625 C-121.20317274 125.70262667 -120.1892866 124.63811585 -119.1875 123.5625 C-118.69185547 123.05267578 -118.19621094 122.54285156 -117.68554688 122.01757812 C-114.89541471 119.11971885 -112.22471782 116.12951826 -109.5859375 113.09375 C-105.97476371 108.93938576 -102.22462059 104.9312335 -98.4375 100.9375 C-97.02841158 99.4455337 -95.61956212 97.95334169 -94.2109375 96.4609375 C-93.50807617 95.71682617 -92.80521484 94.97271484 -92.08105469 94.20605469 C-83.61553312 85.23204567 -75.19926057 76.21874535 -67 67 C-67.40992188 66.17757812 -67.81984375 65.35515625 -68.2421875 64.5078125 C-75.2546264 49.97964962 -77.08268428 37.51556254 -72 22 C-67.59387299 10.35400155 -59.33014958 1.20926418 -48 -4 C-31.51304233 -10.79874543 -15.18339008 -9.11524276 0 0 Z M17 52 C16.76514893 52.67514648 16.53029785 53.35029297 16.28833008 54.04589844 C12.06754633 65.91011583 3.9175698 75.16202844 -7.3125 80.875 C-9.86967409 82.08734941 -12.31152872 83.10384291 -15 84 C-14.54086147 96.05842763 -13.91159582 108.09159693 -13 120.125 C-12.9170166 121.24438965 -12.8340332 122.3637793 -12.74853516 123.51708984 C-12.66651855 124.56590332 -12.58450195 125.6147168 -12.5 126.6953125 C-12.4278125 127.62359863 -12.355625 128.55188477 -12.28125 129.50830078 C-11.92835303 132.82380178 -11.92835303 132.82380178 -11 136 C-8.43909573 137.01048637 -6.08585882 137.75917537 -3.4375 138.4375 C1.36436552 139.77535957 5.59469724 141.01773467 9.75 143.875 C12.63266545 146.24624261 12.63266545 146.24624261 14.97216797 145.79956055 C17.22837792 144.90995212 18.79793399 143.84168029 20.6953125 142.33203125 C21.40212158 141.77547852 22.10893066 141.21892578 22.8371582 140.64550781 C23.592146 140.04061523 24.34713379 139.43572266 25.125 138.8125 C26.74596162 137.53238476 28.36705926 136.25244173 29.98828125 134.97265625 C30.8179541 134.31410645 31.64762695 133.65555664 32.50244141 132.97705078 C36.41961706 129.87624057 40.36615972 126.81354502 44.3125 123.75 C45.06313721 123.16613525 45.81377441 122.58227051 46.5871582 121.98071289 C53.03940012 116.96261712 59.51566723 111.97654002 66 107 C68.16710848 105.33390746 70.33353739 103.66693223 72.5 102 C73.58853556 101.16275248 74.67707721 100.32551287 75.765625 99.48828125 C77.88071753 97.86133583 79.99519452 96.2336002 82.109375 94.60546875 C91.05726258 87.71648565 100.02665666 80.85578314 109 74 C108.39891424 68.34979382 106.92471317 63.33835539 105 58 C87.45853488 56.39295101 69.91109817 54.86421664 52.34790039 53.51309204 C50.63665693 53.38096156 48.92555111 53.24703431 47.21459961 53.11117554 C37.11407847 52.3120601 27.13909627 51.8053343 17 52 Z M-53 79 C-54.218594 80.3201435 -55.43718473 81.64029002 -56.65576172 82.96044922 C-57.73546046 84.1300953 -58.81521472 85.29969012 -59.89501953 86.46923828 C-62.59013 89.3884873 -65.28460405 92.30831264 -67.9765625 95.23046875 C-73.31832101 101.02690247 -78.67932843 106.80449042 -84.0625 112.5625 C-89.2213518 118.08253491 -94.36539403 123.61450203 -99.44140625 129.2109375 C-101.17113119 131.09646973 -102.93009752 132.95552465 -104.71484375 134.7890625 C-105.96974609 136.10003906 -105.96974609 136.10003906 -107.25 137.4375 C-107.99765625 138.19933594 -108.7453125 138.96117187 -109.515625 139.74609375 C-111.24294623 141.88762677 -111.24294623 141.88762677 -110.88671875 144.41796875 C-109.8964443 147.30154326 -108.78512415 150.08146708 -107.5625 152.875 C-105.67375685 157.19373807 -104.26613037 161.46071299 -103 166 C-98.44721106 166.43199411 -93.89399491 166.85905562 -89.34033203 167.28173828 C-87.79430953 167.42592189 -86.24840762 167.57140527 -84.70263672 167.71826172 C-82.46873657 167.9302587 -80.23443092 168.13743147 -78 168.34375 C-77.31945557 168.40937134 -76.63891113 168.47499268 -75.93774414 168.54260254 C-71.26694043 168.96760976 -66.6838198 169.05488851 -62 169 C-61.29037109 167.53240234 -61.29037109 167.53240234 -60.56640625 166.03515625 C-53.92202806 152.69017821 -46.87193086 145.12292172 -33 139 C-31.68 138.34 -30.36 137.68 -29 137 C-30.98 111.755 -30.98 111.755 -33 86 C-34.98 85.34 -36.96 84.68 -39 84 C-40.89828189 83.31928998 -42.79420904 82.63197074 -44.6875 81.9375 C-47.45046899 80.92479352 -50.20812762 79.93062413 -53 79 Z " fill="#000000" transform="translate(204,15)"/>
<path d="M0 0 C8.0989868 6.72530706 12.53397253 15.3041564 13.53125 25.76171875 C13.88538328 37.28580593 10.79536343 46.05503 3.25 54.8125 C-5.00691882 62.79533023 -14.26238593 65.42222452 -25.48974609 65.28515625 C-35.8788719 64.85969461 -44.35118696 60.61122511 -51.4375 53 C-59.34644646 43.19290639 -60.9718943 33.08131621 -59.75 20.8125 C-57.20351117 9.93985108 -50.02543795 1.70513117 -40.75 -4.1875 C-28.05091539 -11.25089618 -11.22434396 -7.9908409 0 0 Z " fill="#000000" transform="translate(491.75,76.1875)"/>
<path d="M0 0 C7.83518573 5.28023386 12.78992908 11.85132714 14.625 21.17578125 C15.78006285 31.41493214 13.78262252 39.55520715 7.8046875 47.95703125 C2.47752667 53.98756181 -4.52415678 57.57230831 -12.515625 58.3359375 C-22.30400447 58.43832641 -29.0604895 57.22967994 -37.25 51.875 C-43.71647725 45.11459196 -47.90018016 37.12137799 -48.3125 27.6875 C-48.05595267 18.81398073 -45.11426886 11.43243217 -39 5 C-27.9001651 -5.32706159 -13.45898707 -7.04804944 0 0 Z " fill="#000000" transform="translate(451,188)"/>
<path d="M0 0 C7.70900707 5.4750737 12.84981266 13.23976959 14.58203125 22.59375 C15.40454069 30.68175949 13.34760428 38.36255071 8.88671875 45.1875 C3.59922322 51.60955934 -2.61084439 54.99137521 -10.41796875 57.59375 C-18.66568835 58.2905795 -25.25812401 57.86996376 -32.41796875 53.59375 C-33.35576172 53.0678125 -33.35576172 53.0678125 -34.3125 52.53125 C-41.19375415 48.21360034 -45.28809951 41.31332132 -47.41796875 33.59375 C-48.80721617 22.55991949 -46.54970578 14.20878632 -39.7421875 5.43359375 C-29.3264134 -5.84417545 -13.18912835 -7.67057546 0 0 Z " fill="#FC3D19" transform="translate(376.41796875,427.40625)"/>
<path d="M0 0 C8.10493248 4.7982326 13.67622975 11.1929657 16.25 20.33203125 C17.32070825 31.64916848 16.14376293 39.70575051 9.0625 48.58203125 C3.65464649 54.42111445 -2.89185139 57.83745169 -10.78125 58.640625 C-20.79296694 59.01268205 -28.17565581 57.04955942 -35.91015625 50.50390625 C-42.11531663 44.02208266 -44.9252231 36.74768093 -45.25 27.83203125 C-44.9252231 18.91638157 -42.11531663 11.64197984 -35.91015625 5.16015625 C-25.53503914 -3.62023219 -12.45692704 -5.79820782 0 0 Z " fill="#FD3D19" transform="translate(69.75,319.66796875)"/>
<path d="M0 0 C6.99400234 4.70263395 12.04635747 12.57061448 13.80078125 20.81640625 C14.81853573 28.8630276 12.77091578 36.38752211 8.2578125 43.1171875 C3.72984911 48.61912929 -2.01266718 53.53173066 -9.19921875 54.81640625 C-19.81069966 55.69029291 -27.63493334 54.92336961 -36.22265625 48.2421875 C-42.54188729 42.52288346 -45.27513366 36.49838627 -45.72070312 27.98193359 C-45.91215289 18.16557463 -43.55136567 11.20220278 -36.88671875 3.94140625 C-26.41203872 -5.75567745 -12.42073898 -6.68469611 0 0 Z " fill="#FD3D19" transform="translate(349.19921875,207.18359375)"/>
<path d="M0 0 C8.81980086 5.01226457 13.15008161 11.81743234 16.31640625 21.31640625 C17.07859104 28.93825416 16.12842269 34.68626544 12.31640625 41.31640625 C11.97738281 41.94417969 11.63835937 42.57195312 11.2890625 43.21875 C7.27782749 49.74235996 0.67853269 53.04111691 -6.30859375 55.69140625 C-14.73752752 57.25231991 -21.73653317 56.36695911 -29.078125 51.83984375 C-36.07012398 46.76107832 -40.68400505 40.87684976 -42.3984375 32.3046875 C-43.64845717 23.58879695 -41.96054413 16.07233423 -36.91796875 8.75390625 C-27.49994831 -2.51805523 -13.59694523 -6.26376128 0 0 Z " fill="#FC9A00" transform="translate(368.68359375,40.68359375)"/>
<path d="M0 0 C6.57877605 4.55099219 11.45638324 10.36914971 14 18 C14.8109127 28.22281751 14.00711295 36.93433182 7.75 45.3125 C1.45690795 51.46256723 -5.39321013 54.98992218 -14.25 55.375 C-22.99918083 55.17318714 -29.8953823 51.96137168 -36.2421875 46 C-42.47052833 38.91353221 -44.50420892 31.57051212 -44.40234375 22.30078125 C-43.48458995 14.77163597 -39.70797155 8.20282248 -34.25 3 C-23.63490181 -5.25394517 -11.79983663 -6.54688153 0 0 Z " fill="#FD9A00" transform="translate(202,172)"/>
<path d="M0 0 C6.21664105 3.48131899 11.93875534 8.91735778 14.53125 15.72265625 C16.18253459 23.74514724 16.54152712 33.86114466 12 41 C6.71288045 48.2682701 0.92907062 53.21418588 -8 55 C-16.96517564 55.85035541 -23.41280997 54.91103295 -31 50 C-31.928125 49.401875 -32.85625 48.80375 -33.8125 48.1875 C-40.14560458 41.85439542 -42.99085127 34.53477212 -43.375 25.625 C-43.25896872 19.97814424 -41.79352824 15.85871083 -39 11 C-38.66097656 10.37222656 -38.32195312 9.74445312 -37.97265625 9.09765625 C-30.05091273 -3.78574869 -12.8747475 -6.32443737 0 0 Z " fill="#FD9A00" transform="translate(190,28)"/>
<path d="M0 0 C7.95174041 5.01858243 13.37351065 10.9456202 15.83203125 20.15625 C17.06795005 29.21624978 16.16569994 36.62715708 10.83203125 44.15625 C6.12066712 50.09119656 0.6531225 53.63380013 -6.54296875 55.90625 C-17.71103511 56.96987537 -25.45159337 54.93339176 -34.375 47.93359375 C-40.27293664 42.08705525 -42.29720723 35.04190233 -42.48046875 26.96875 C-42.37886007 17.8849339 -39.4247405 11.5283721 -33.19140625 4.953125 C-24.42213105 -2.83426224 -10.85355602 -5.10755577 0 0 Z " fill="#FD9B00" transform="translate(67.16796875,158.84375)"/>
<path d="M0 0 C3.87314647 2.22270504 5.95322429 5.51226571 8.13671875 9.359375 C9.86529778 16.11654758 9.3731649 22.95916962 5.82421875 29.046875 C1.4745394 34.10225453 -3.57220378 35.79491589 -10.05078125 36.421875 C-15.91817297 36.25327179 -20.45669251 33.76596374 -24.55078125 29.671875 C-28.02428145 24.06083622 -29.06722714 18.55112838 -28.17578125 12.046875 C-26.09873787 5.68101773 -22.76316652 1.98600217 -16.86328125 -1.203125 C-10.93957452 -2.85625246 -5.61234261 -2.33755724 0 0 Z " fill="#FB3D19" transform="translate(478.17578125,316.953125)"/>
<path d="M0 0 C4.27418077 2.47087529 6.91568607 6.32265797 9.30078125 10.55078125 C10.88969002 17.06530722 10.1585308 22.10167275 7.265625 28.0625 C4.76670835 31.88737242 1.32916352 34.36041451 -3.01953125 35.72265625 C-7.92637262 36.65551583 -12.51464241 36.63314003 -17.26171875 35.05078125 C-21.7304833 31.972299 -25.34146706 28.31153631 -27.07421875 23.11328125 C-27.55176301 17.24966405 -27.93637486 11.93338859 -25.38671875 6.55078125 C-17.9640394 -1.27312401 -10.36918998 -4.24834774 0 0 Z " fill="#FB3D19" transform="translate(239.07421875,383.88671875)"/>
<path d="M0 0 C5.04467402 2.81937869 7.94606028 7.02568084 9.75 12.4375 C10.35493596 18.44032609 9.738073 23.07957599 6.75 28.4375 C3.12438272 32.74904487 -0.64582625 35.88816497 -6.3515625 36.7578125 C-12.06888443 37.05251982 -16.63654875 35.88502457 -21.25 32.4375 C-26.23307937 27.10820171 -27.64183979 22.01135932 -27.5234375 14.8125 C-26.97018097 10.00707189 -25.10757102 6.13886618 -21.53125 2.86328125 C-14.94419298 -2.00723337 -7.67431762 -3.40757177 0 0 Z " fill="#FA9900" transform="translate(477.25,87.5625)"/>
<path d="M0 0 C5.15085024 2.71038189 7.92633526 6.91572453 9.7265625 12.31640625 C10.29716699 18.59305566 10.02267125 23.78744964 6.7265625 29.31640625 C2.05621087 34.19653727 -1.6607158 36.44679492 -8.5234375 36.62890625 C-14.04573917 36.57054639 -16.87501167 35.63766657 -21.2734375 32.31640625 C-25.41254125 27.95356716 -27.34043903 23.98934314 -27.6484375 18.00390625 C-27.49846021 12.37038435 -25.69308809 7.8039552 -21.7421875 3.7421875 C-15.50469664 -1.59331326 -7.91192616 -2.3790156 0 0 Z " fill="#FC3D19" transform="translate(119.2734375,450.68359375)"/>
<path d="M0 0 C3.70910097 1.78586343 5.54021301 3.36223095 7.9375 6.6875 C9.35197764 11.09734204 9.30298612 14.55872415 8 19 C6.16697919 22.32058769 3.88974114 24.49809474 0.5625 26.375 C-4.13422023 27.52054152 -6.87152271 27.61955616 -11.1875 25.25 C-15.33627646 21.93097883 -17.03812508 19.88409819 -17.875 14.625 C-18.21161206 10.26336716 -17.61591477 7.62852694 -15 4 C-10.33447346 -0.22119068 -6.05917137 -1.06415554 0 0 Z " fill="#FA9900" transform="translate(439,202)"/>
</svg>
